<svg xmlns="http://www.w3.org/2000/svg" version="1.1" xmlns:xlink="http://www.w3.org/1999/xlink" xmlns:svgjs="http://svgjs.dev/svgjs" width="200" height="200" viewBox="0 0 1500 1500"><rect width="1500" height="1500" fill="#000000"></rect><g transform="matrix(0.6666666666666666,0,0,0.6666666666666666,249.39393939393938,566.6645055636803)"><svg viewBox="0 0 396 145" data-background-color="#ffffff" preserveAspectRatio="xMidYMid meet" height="549" width="1500" xmlns="http://www.w3.org/2000/svg" xmlns:xlink="http://www.w3.org/1999/xlink"><g id="tight-bounds" transform="matrix(1,0,0,1,0.2400000000000091,0.13291446247635008)"><svg viewBox="0 0 395.52 144.7341710750473" height="144.7341710750473" width="395.52"><g><svg viewBox="0 0 638.1041443009149 233.50392997811815" height="144.7341710750473" width="395.52"><g transform="matrix(1,0,0,1,242.58414430091483,0)"><svg viewBox="0 0 395.52 233.50392997811815" height="233.50392997811815" width="395.52"><g id="textblocktransform"><svg viewBox="0 0 395.52 233.50392997811815" height="233.50392997811815" width="395.52" id="textblock"><g><svg viewBox="0 0 395.52 233.50392997811815" height="233.50392997811815" width="395.52"><g transform="matrix(1,0,0,1,0,0)"><svg width="395.52" viewBox="3.96 -32.93 55.78 32.93" height="233.50392997811815" data-palette-color="#000000"><path d="M28.74 0L23.36 0 14.43-14.04 8.62-14.04 8.62 0 3.96 0 3.96-32.93 15.72-32.93Q21.41-32.93 24.39-30.58 27.37-28.22 27.37-23.83L27.37-23.83Q27.37-20.19 25.09-17.7 22.8-15.21 18.97-14.58L18.97-14.58 28.74 0ZM22.68-23.75L22.68-23.75Q22.68-29.2 15.26-29.2L15.26-29.2 8.62-29.2 8.62-17.72 15.45-17.72Q18.95-17.72 20.81-19.29 22.68-20.85 22.68-23.75ZM59.74-32.93L47.41 0 42.58 0 30.25-32.93 35.15-32.93 42.97-10.91Q43.72-8.81 45.02-4.1L45.02-4.1Q45.99-7.74 47.07-10.91L47.07-10.91 54.83-32.93 59.74-32.93Z" opacity="1" transform="matrix(1,0,0,1,0,0)" fill="#ffffff" class="wordmark-text-0" data-fill-palette-color="primary" id="text-0"></path></svg></g></svg></g></svg></g></svg></g><g transform="matrix(1,0,0,1,0,50.58456661211589)"><svg viewBox="0 0 132.33479675388637 132.33479675388637" height="132.33479675388637" width="132.33479675388637"><g><svg></svg></g><g id="icon-0"><svg viewBox="0 0 132.33479675388637 132.33479675388637" height="132.33479675388637" width="132.33479675388637"><g><path d="M0 66.167c0-36.543 29.624-66.167 66.167-66.167 36.543 0 66.167 29.624 66.168 66.167 0 36.543-29.624 66.167-66.168 66.168-36.543 0-66.167-29.624-66.167-66.168zM66.167 111.277c24.913 0 45.11-20.196 45.11-45.11 0-24.913-20.196-45.11-45.11-45.109-24.913 0-45.11 20.196-45.109 45.109 0 24.913 20.196 45.11 45.109 45.11z" data-fill-palette-color="tertiary" fill="#ffffff" stroke="transparent"></path></g><g transform="matrix(1,0,0,1,50.92000717865247,39.88724184026322)"><svg viewBox="0 0 30.494782396581428 52.56031307335992" height="52.56031307335992" width="30.494782396581428"><g><svg xmlns="http://www.w3.org/2000/svg" xmlns:xlink="http://www.w3.org/1999/xlink" version="1.1" x="0" y="0" viewBox="21.679106830508623 1 56.85827385947761 98" enable-background="new 0 0 100 100" xml:space="preserve" height="52.56031307335992" width="30.494782396581428" class="icon-cg-0" data-fill-palette-color="accent" id="cg-0"><g fill="#261f20" data-fill-palette-color="accent"><path fill-rule="evenodd" clip-rule="evenodd" d="M30.545 28.822c-1.165 7.217 0.33 14.85 6.5 19.041C30.758 19.81 45.756 8.664 59.646 1c-16.18 23.046 16.896 23.644 18.777 50.13C80.028 73.71 64.507 91.317 46.639 99c0.206-22.825-22.55-25.933-24.838-44.603C20.905 47.094 25.062 33.766 30.545 28.822z" fill="#ffffff" data-fill-palette-color="accent"></path></g></svg></g></svg></g></svg></g></svg></g></svg></g><defs></defs></svg><rect width="395.52" height="144.7341710750473" fill="none" stroke="none" visibility="hidden"></rect></g></svg></g></svg>